{
	"asset":{
		"generator":"Khronos glTF Blender I/O v4.3.47",
		"version":"2.0"
	},
	"extensionsUsed":[
		"KHR_materials_specular"
	],
	"scene":0,
	"scenes":[
		{
			"name":"Scene",
			"nodes":[
				0
			]
		}
	],
	"nodes":[
		{
			"mesh":0,
			"name":"maze",
			"rotation":[
				0.7071068286895752,
				0,
				0,
				0.7071068286895752
			],
			"translation":[
				9.495694160461426,
				0,
				8.024970054626465
			]
		}
	],
	"materials":[
		{
			"doubleSided":true,
			"extensions":{
				"KHR_materials_specular":{
					"specularFactor":0
				}
			},
			"name":"initialShadingGroup",
			"pbrMetallicRoughness":{
				"baseColorFactor":[
					0.015487631782889366,
					0.05343322455883026,
					0,
					1
				],
				"metallicFactor":0
			}
		}
	],
	"meshes":[
		{
			"name":"maze",
			"primitives":[
				{
					"attributes":{
						"POSITION":0,
						"NORMAL":1,
						"TEXCOORD_0":2
					},
					"indices":3,
					"material":0
				}
			]
		}
	],
	"accessors":[
		{
			"bufferView":0,
			"componentType":5126,
			"count":6024,
			"max":[
				31.548105239868164,
				15.236224174499512,
				2.498224973678589
			],
			"min":[
				-48.486026763916016,
				-31.35148048400879,
				-4.77987003326416
			],
			"type":"VEC3"
		},
		{
			"bufferView":1,
			"componentType":5126,
			"count":6024,
			"type":"VEC3"
		},
		{
			"bufferView":2,
			"componentType":5126,
			"count":6024,
			"type":"VEC2"
		},
		{
			"bufferView":3,
			"componentType":5123,
			"count":8304,
			"type":"SCALAR"
		}
	],
	"bufferViews":[
		{
			"buffer":0,
			"byteLength":72288,
			"byteOffset":0,
			"target":34962
		},
		{
			"buffer":0,
			"byteLength":72288,
			"byteOffset":72288,
			"target":34962
		},
		{
			"buffer":0,
			"byteLength":48192,
			"byteOffset":144576,
			"target":34962
		},
		{
			"buffer":0,
			"byteLength":16608,
			"byteOffset":192768,
			"target":34963
		}
	],
	"buffers":[
		{
			"byteLength":209376,
			"uri":"maze.bin"
		}
	]
}
