{
	"asset":{
		"generator":"Khronos glTF Blender I/O v4.3.47",
		"version":"2.0"
	},
	"scene":0,
	"scenes":[
		{
			"name":"Scene",
			"nodes":[
				0
			]
		}
	],
	"nodes":[
		{
			"mesh":0,
			"name":"mazeRooms",
			"rotation":[
				0.7071068286895752,
				0,
				0,
				0.7071068286895752
			]
		}
	],
	"materials":[
		{
			"doubleSided":true,
			"name":"Material.001",
			"pbrMetallicRoughness":{
				"baseColorFactor":[
					0.5916552543640137,
					0.7922377586364746,
					0.8009074926376343,
					1
				],
				"metallicFactor":0,
				"roughnessFactor":0.5
			}
		}
	],
	"meshes":[
		{
			"name":"mazeRooms",
			"primitives":[
				{
					"attributes":{
						"POSITION":0,
						"NORMAL":1,
						"TEXCOORD_0":2
					},
					"indices":3,
					"material":0
				}
			]
		}
	],
	"accessors":[
		{
			"bufferView":0,
			"componentType":5126,
			"count":1536,
			"max":[
				65.78380584716797,
				7.64577579498291,
				2.498224973678589
			],
			"min":[
				-8.523210525512695,
				-100.83059692382812,
				-6.307798862457275
			],
			"type":"VEC3"
		},
		{
			"bufferView":1,
			"componentType":5126,
			"count":1536,
			"type":"VEC3"
		},
		{
			"bufferView":2,
			"componentType":5126,
			"count":1536,
			"type":"VEC2"
		},
		{
			"bufferView":3,
			"componentType":5123,
			"count":2112,
			"type":"SCALAR"
		}
	],
	"bufferViews":[
		{
			"buffer":0,
			"byteLength":18432,
			"byteOffset":0,
			"target":34962
		},
		{
			"buffer":0,
			"byteLength":18432,
			"byteOffset":18432,
			"target":34962
		},
		{
			"buffer":0,
			"byteLength":12288,
			"byteOffset":36864,
			"target":34962
		},
		{
			"buffer":0,
			"byteLength":4224,
			"byteOffset":49152,
			"target":34963
		}
	],
	"buffers":[
		{
			"byteLength":53376,
			"uri":"mazeRooms.bin"
		}
	]
}
