{
	"asset":{
		"generator":"Khronos glTF Blender I/O v4.3.47",
		"version":"2.0"
	},
	"scene":0,
	"scenes":[
		{
			"name":"Scene",
			"nodes":[
				0
			]
		}
	],
	"nodes":[
		{
			"mesh":0,
			"name":"maze",
			"rotation":[
				0.7071068286895752,
				0,
				0,
				0.7071068286895752
			]
		}
	],
	"materials":[
		{
			"doubleSided":true,
			"name":"Material.001",
			"pbrMetallicRoughness":{
				"baseColorFactor":[
					0.022156570106744766,
					0.11083568632602692,
					0.02714083530008793,
					1
				],
				"metallicFactor":0,
				"roughnessFactor":0.5
			}
		}
	],
	"meshes":[
		{
			"name":"maze",
			"primitives":[
				{
					"attributes":{
						"POSITION":0,
						"NORMAL":1,
						"TEXCOORD_0":2
					},
					"indices":3,
					"material":0
				}
			]
		}
	],
	"accessors":[
		{
			"bufferView":0,
			"componentType":5126,
			"count":6600,
			"max":[
				25.270008087158203,
				-13.469100952148438,
				2.498224973678589
			],
			"min":[
				-54.764122009277344,
				-78.65792846679688,
				-4.77987003326416
			],
			"type":"VEC3"
		},
		{
			"bufferView":1,
			"componentType":5126,
			"count":6600,
			"type":"VEC3"
		},
		{
			"bufferView":2,
			"componentType":5126,
			"count":6600,
			"type":"VEC2"
		},
		{
			"bufferView":3,
			"componentType":5123,
			"count":9096,
			"type":"SCALAR"
		}
	],
	"bufferViews":[
		{
			"buffer":0,
			"byteLength":79200,
			"byteOffset":0,
			"target":34962
		},
		{
			"buffer":0,
			"byteLength":79200,
			"byteOffset":79200,
			"target":34962
		},
		{
			"buffer":0,
			"byteLength":52800,
			"byteOffset":158400,
			"target":34962
		},
		{
			"buffer":0,
			"byteLength":18192,
			"byteOffset":211200,
			"target":34963
		}
	],
	"buffers":[
		{
			"byteLength":229392,
			"uri":"maze.bin"
		}
	]
}
