{
	"asset":{
		"generator":"Khronos glTF Blender I/O v4.3.47",
		"version":"2.0"
	},
	"extensionsUsed":[
		"KHR_materials_transmission",
		"KHR_materials_specular"
	],
	"scene":0,
	"scenes":[
		{
			"name":"Scene",
			"nodes":[
				0
			]
		}
	],
	"nodes":[
		{
			"mesh":0,
			"name":"navMesh",
			"rotation":[
				0.7071068286895752,
				0,
				0,
				0.7071068286895752
			]
		}
	],
	"materials":[
		{
			"doubleSided":true,
			"extensions":{
				"KHR_materials_transmission":{
					"transmissionFactor":1
				},
				"KHR_materials_specular":{
					"specularFactor":0
				}
			},
			"name":"initialShadingGroup",
			"pbrMetallicRoughness":{
				"baseColorFactor":[
					0,
					0,
					0,
					1
				],
				"metallicFactor":0
			}
		}
	],
	"meshes":[
		{
			"name":"navMesh",
			"primitives":[
				{
					"attributes":{
						"POSITION":0,
						"NORMAL":1,
						"TEXCOORD_0":2
					},
					"indices":3,
					"material":0
				}
			]
		}
	],
	"accessors":[
		{
			"bufferView":0,
			"componentType":5126,
			"count":19706,
			"max":[
				64.49581909179688,
				6.31594705581665,
				0
			],
			"min":[
				-53.19285583496094,
				-99.37035369873047,
				0
			],
			"type":"VEC3"
		},
		{
			"bufferView":1,
			"componentType":5126,
			"count":19706,
			"type":"VEC3"
		},
		{
			"bufferView":2,
			"componentType":5126,
			"count":19706,
			"type":"VEC2"
		},
		{
			"bufferView":3,
			"componentType":5123,
			"count":107004,
			"type":"SCALAR"
		}
	],
	"bufferViews":[
		{
			"buffer":0,
			"byteLength":236472,
			"byteOffset":0,
			"target":34962
		},
		{
			"buffer":0,
			"byteLength":236472,
			"byteOffset":236472,
			"target":34962
		},
		{
			"buffer":0,
			"byteLength":157648,
			"byteOffset":472944,
			"target":34962
		},
		{
			"buffer":0,
			"byteLength":214008,
			"byteOffset":630592,
			"target":34963
		}
	],
	"buffers":[
		{
			"byteLength":844600,
			"uri":"navMesh.bin"
		}
	]
}
