{
	"asset":{
		"generator":"Khronos glTF Blender I/O v3.6.28",
		"version":"2.0"
	},
	"scene":0,
	"scenes":[
		{
			"name":"Scene",
			"nodes":[
				0
			]
		}
	],
	"nodes":[
		{
			"mesh":0,
			"name":"navMesh",
			"rotation":[
				0.70710688829422,
				0,
				0,
				0.7071066498756409
			]
		}
	],
	"materials":[
		{
			"doubleSided":true,
			"name":"Material.002",
			"pbrMetallicRoughness":{
				"baseColorFactor":[
					0.8000000715255737,
					0.0019256353843957186,
					0,
					1
				],
				"metallicFactor":0,
				"roughnessFactor":0.5
			}
		}
	],
	"meshes":[
		{
			"name":"Mesh.001",
			"primitives":[
				{
					"attributes":{
						"POSITION":0,
						"NORMAL":1,
						"TEXCOORD_0":2
					},
					"indices":3,
					"material":0
				}
			]
		}
	],
	"accessors":[
		{
			"bufferView":0,
			"componentType":5126,
			"count":18716,
			"max":[
				64.49581909179688,
				6.31594705581665,
				0
			],
			"min":[
				-53.19285583496094,
				-98.454833984375,
				0
			],
			"type":"VEC3"
		},
		{
			"bufferView":1,
			"componentType":5126,
			"count":18716,
			"type":"VEC3"
		},
		{
			"bufferView":2,
			"componentType":5126,
			"count":18716,
			"type":"VEC2"
		},
		{
			"bufferView":3,
			"componentType":5123,
			"count":101346,
			"type":"SCALAR"
		}
	],
	"bufferViews":[
		{
			"buffer":0,
			"byteLength":224592,
			"byteOffset":0,
			"target":34962
		},
		{
			"buffer":0,
			"byteLength":224592,
			"byteOffset":224592,
			"target":34962
		},
		{
			"buffer":0,
			"byteLength":149728,
			"byteOffset":449184,
			"target":34962
		},
		{
			"buffer":0,
			"byteLength":202692,
			"byteOffset":598912,
			"target":34963
		}
	],
	"buffers":[
		{
			"byteLength":801604,
			"uri":"redNavMesh.bin"
		}
	]
}
