{
	"asset":{
		"generator":"Khronos glTF Blender I/O v4.3.47",
		"version":"2.0"
	},
	"scene":0,
	"scenes":[
		{
			"name":"Scene",
			"nodes":[
				0
			]
		}
	],
	"nodes":[
		{
			"mesh":0,
			"name":"statues",
			"rotation":[
				0.7071068286895752,
				0,
				0,
				0.7071068286895752
			]
		}
	],
	"materials":[
		{
			"doubleSided":true,
			"name":"Material.001",
			"pbrMetallicRoughness":{
				"baseColorFactor":[
					0.008510874584317207,
					0.00889371708035469,
					0.010101662017405033,
					1
				],
				"metallicFactor":0,
				"roughnessFactor":0.5
			}
		}
	],
	"meshes":[
		{
			"name":"statues",
			"primitives":[
				{
					"attributes":{
						"POSITION":0,
						"NORMAL":1,
						"TEXCOORD_0":2
					},
					"indices":3,
					"material":0
				}
			]
		}
	],
	"accessors":[
		{
			"bufferView":0,
			"componentType":5126,
			"count":44683,
			"max":[
				63.805946350097656,
				-23.927505493164062,
				0.21904200315475464
			],
			"min":[
				-53.207794189453125,
				-99.76585388183594,
				-5.583357810974121
			],
			"type":"VEC3"
		},
		{
			"bufferView":1,
			"componentType":5126,
			"count":44683,
			"type":"VEC3"
		},
		{
			"bufferView":2,
			"componentType":5126,
			"count":44683,
			"type":"VEC2"
		},
		{
			"bufferView":3,
			"componentType":5123,
			"count":70368,
			"type":"SCALAR"
		}
	],
	"bufferViews":[
		{
			"buffer":0,
			"byteLength":536196,
			"byteOffset":0,
			"target":34962
		},
		{
			"buffer":0,
			"byteLength":536196,
			"byteOffset":536196,
			"target":34962
		},
		{
			"buffer":0,
			"byteLength":357464,
			"byteOffset":1072392,
			"target":34962
		},
		{
			"buffer":0,
			"byteLength":140736,
			"byteOffset":1429856,
			"target":34963
		}
	],
	"buffers":[
		{
			"byteLength":1570592,
			"uri":"statues.bin"
		}
	]
}
